<svg width="78" height="20" viewBox="0 0 78 20" fill="none" xmlns="http://www.w3.org/2000/svg">
<path d="M2.89457 0.783203H6.65667L9.84188 7.98793L13.1275 0.783203H16.8896L19.3725 19.3089H14.5571L13.5038 11.6929H13.4536L9.84188 19.4379L6.23048 11.6929H6.18024L5.12693 19.3089H0.311523L2.89457 0.783203Z" fill="#A3A3A3"/>
<path d="M20.9775 0.783203H30.6586L31.3859 5.67181H25.6928V7.60159H29.4043V12.4902H25.6928V14.42H32.013L30.7843 19.3086H20.9775V0.783203Z" fill="#A3A3A3"/>
<path d="M32.5907 0.783203H43.7263L44.2027 5.466H40.5158V19.3089H35.8008V5.46632H32.1143L32.5907 0.783203Z" fill="#A3A3A3"/>
<path d="M45.5566 0.783203H51.7514C53.6075 0.783203 55.0829 1.29373 56.1781 2.31416C57.2732 3.3349 57.821 4.80599 57.821 6.72712C57.821 8.64826 57.0014 10.1664 55.3631 11.2816L58.8241 19.3095H53.507L50.3218 11.6676H50.2719V19.3095H45.5566V0.783203ZM50.2719 9.48015C51.191 9.48015 51.8934 9.30026 52.3785 8.93985C52.8634 8.57976 53.1058 7.99657 53.1058 7.19028C53.1058 6.384 52.8634 5.80081 52.3785 5.44072C51.8934 5.08062 51.191 4.90042 50.2719 4.90042V9.48015Z" fill="#A3A3A3"/>
<path d="M76.8819 13.8031C76.3967 14.9868 75.724 16.0287 74.8629 16.9294C74.0015 17.8301 73.0071 18.5291 71.8783 19.0265C70.7498 19.5239 69.5667 19.7727 68.3296 19.7727C67.0919 19.7727 65.9091 19.5239 64.7806 19.0265C63.6521 18.5291 62.6568 17.8301 61.7963 16.9294C60.9349 16.029 60.2619 14.9868 59.7771 13.8031C59.2919 12.6195 59.0498 11.3676 59.0498 10.0463C59.0498 8.72566 59.2919 7.47318 59.7771 6.28984C60.2619 5.10618 60.9349 4.06399 61.7963 3.1636C62.6571 2.26321 63.6521 1.56415 64.7806 1.06674C65.9091 0.569336 67.0919 0.320312 68.3296 0.320312C69.5667 0.320312 70.7498 0.569336 71.8783 1.06674C73.0071 1.56447 74.0018 2.26321 74.8629 3.1636C75.724 4.06399 76.3967 5.10618 76.8819 6.28984C77.3667 7.4735 77.6091 8.72566 77.6091 10.0463C77.6091 11.3676 77.3667 12.6195 76.8819 13.8031ZM72.4555 8.25802C72.2296 7.68348 71.9076 7.17327 71.4896 6.72707C71.0715 6.2812 70.5907 5.93359 70.0475 5.68489C69.504 5.4365 68.9315 5.31167 68.3296 5.31167C67.7275 5.31167 67.1546 5.4317 66.6114 5.67176C66.0679 5.91214 65.5912 6.25079 65.1819 6.68802C64.7722 7.12526 64.4502 7.63162 64.2162 8.20617C63.9819 8.78104 63.8652 9.394 63.8652 10.046C63.8652 10.6807 63.9819 11.2898 64.2162 11.873C64.4502 12.4565 64.7719 12.9668 65.1819 13.404C65.5912 13.8415 66.0679 14.1802 66.6114 14.4202C67.1546 14.6606 67.7275 14.7803 68.3296 14.7803C68.9315 14.7803 69.504 14.6561 70.0475 14.4071C70.5907 14.1587 71.0715 13.8111 71.4896 13.3649C71.9076 12.9191 72.2296 12.4088 72.4555 11.834C72.6811 11.2594 72.794 10.6631 72.794 10.0457C72.794 9.42824 72.6808 8.83321 72.4555 8.25802Z" fill="#A3A3A3"/>
</svg>