<svg width="122" height="18" viewBox="0 0 122 18" fill="none" xmlns="http://www.w3.org/2000/svg">
<path d="M13.3559 16.878L12.8421 17.6405C10.98 17.6736 9.11793 17.1098 7.38414 14.5567L5.23345 11.4398C5.20103 11.4398 5.10448 11.4729 5.04069 11.4729L4.46276 11.5727V15.5845C4.46276 16.4467 4.84793 16.712 6.1 16.8114V17.508C4.06717 17.4417 2.03283 17.4417 0 17.508L0 16.8114C1.28414 16.712 1.66966 16.4467 1.66966 15.5845V4.24449C1.66966 3.54825 1.31621 3.15045 0.0962057 3.05109V2.35449C2.24724 2.45421 4.49483 2.35449 5.8431 2.35449C10.8193 2.35449 12.1034 4.24449 12.1034 6.36669C12.1034 8.42229 10.8517 9.94797 7.6731 10.8764L9.66345 13.7276C10.98 15.6511 12.2962 16.7783 13.3559 16.8776V16.878ZM4.46276 10.7436L5.04069 10.6773C8.34724 10.2464 9.4069 8.62173 9.4069 6.53265C9.4069 4.57641 8.47586 3.15045 6.29276 3.15045H4.49483V10.7436H4.46276Z" fill="#A3A3A3"/>
<path d="M17.6894 17.7395C14.6073 17.7395 12.0391 15.4848 12.0391 11.4395C12.0391 7.3283 14.6394 5.10638 17.4325 5.10638C20.0973 5.10638 22.1522 7.06262 22.1522 10.0139C22.1522 11.0748 21.8311 11.6051 20.9322 11.6051H14.8322C14.8322 14.6561 15.9235 16.977 18.2353 16.977C19.2949 16.977 20.4184 16.4795 21.0604 15.1201H21.8308C21.1246 16.8111 19.7122 17.7395 17.6894 17.7395ZM17.4325 5.8361C15.7953 5.8361 14.8642 7.69262 14.8642 10.7764H19.6477C19.6477 7.7261 19.0701 5.8361 17.4325 5.8361ZM33.6777 16.7448V17.4411C32.2332 17.5077 31.2056 17.4742 30.178 17.7399C29.8894 17.6401 29.7287 17.4411 29.6325 17.2092L29.7611 15.4517H29.6325C29.2473 16.1479 27.9953 17.7395 25.8122 17.7395C24.2711 17.7395 22.5373 16.9439 22.5373 14.6561C22.5373 12.567 24.0463 11.1742 29.6004 9.91418V8.78702C29.6004 6.6317 29.3756 5.7695 27.9308 5.7695C24.9132 5.7695 26.7432 9.45014 24.4956 9.45014C23.6611 9.45014 23.2756 8.95262 23.2756 8.22326C23.2756 6.4661 25.5232 5.00702 28.7335 5.00702C31.1415 5.00702 32.2653 5.8361 32.2653 8.78702V14.9214C32.2653 16.1148 32.7787 16.7117 33.6777 16.7448ZM29.6004 14.3577V10.5777C25.6835 11.5389 25.2663 13.4289 25.2663 14.4239C25.2663 15.7501 26.0046 16.5126 26.9677 16.5126C28.3163 16.5461 29.3435 14.9877 29.6004 14.3577ZM39.1997 16.7779V17.4742C37.3603 17.3747 35.5171 17.3747 33.6777 17.4742V16.7779C34.448 16.6786 35.0904 16.4795 35.0904 15.8826V4.7417C35.0904 3.84638 34.6087 3.61418 33.7422 3.74702V3.05078C35.0584 2.81858 36.3104 2.35418 37.4022 1.65794C37.6266 1.75766 37.8194 1.95674 37.9477 2.2217C37.8194 3.05078 37.8194 3.97922 37.8194 5.47106V15.8826C37.7873 16.4795 38.3973 16.6782 39.1997 16.7779ZM54.6104 13.2633C54.6104 15.8495 52.4273 17.4742 48.2215 17.4742H41.4153V16.7779C42.6994 16.6786 43.0849 16.4133 43.0849 15.5511V4.37666C43.0849 3.58106 42.7315 3.15014 41.5115 3.05078V2.35418C43.6625 2.4539 45.5887 2.35418 46.9373 2.35418C51.8173 2.35418 53.0053 4.21106 53.0053 5.93546C53.0053 7.29482 52.2987 8.32262 50.2442 9.11858C53.1015 9.6161 54.6104 11.1079 54.6104 13.2633ZM45.8456 9.3839C49.2811 8.85326 50.2759 7.9583 50.2759 6.03482C50.2759 4.31042 49.4415 3.15014 47.2904 3.15014C46.5522 3.15014 46.1987 3.15014 45.8456 3.18326V9.3839ZM51.7532 13.3626C51.7532 11.2739 50.5653 9.7817 48.3177 9.7817L45.8456 10.1795V15.5183C45.8456 16.3801 46.0384 16.6451 47.1622 16.6451H48.1253C50.5973 16.6451 51.7532 15.4517 51.7532 13.3626ZM66.8746 16.5457V17.2423C65.4301 17.3086 64.4025 17.4742 63.3432 17.7395C63.0863 17.6401 62.9256 17.4411 62.8294 17.2092L63.1504 14.7555H62.9901C62.5725 15.7167 61.2884 17.8061 58.8484 17.8061C57.2432 17.8061 55.5094 16.9108 55.5094 13.5286V6.93014C55.5094 6.33326 55.3166 6.13454 54.8353 6.10106L54.1287 6.06794V5.3717L57.5642 5.1395C57.8849 5.10638 58.1422 5.27234 58.1422 5.67014V13.3295C58.1422 15.1864 58.5594 16.4464 59.8435 16.4464C61.4166 16.4464 62.5084 14.4901 62.7973 13.6942V6.93014C62.7973 6.33326 62.6046 6.13454 62.1232 6.10106L61.4166 6.06794V5.3717L64.8201 5.1395C65.2053 5.10638 65.4301 5.27234 65.4301 5.67014V14.9545C65.4301 16.1148 65.9435 16.5126 66.8746 16.5457ZM72.0435 17.7395C70.5987 17.7395 69.6356 16.8777 68.9294 16.8777C68.6084 16.8777 68.4477 17.1095 68.3835 17.4411H67.6453L67.3884 14.1255H68.0625C68.5442 15.8499 70.5025 16.9767 71.8187 16.9767C72.9104 16.9767 73.5525 16.2808 73.5525 15.2199C73.5525 13.8933 72.4611 13.2964 70.8556 12.4342C69.1859 11.5723 67.3884 10.5111 67.3884 8.42234C67.3884 6.53234 68.9294 5.10674 71.0163 5.10674C72.4932 5.10674 73.0387 5.80262 73.6487 5.80262C73.9701 5.80262 74.1625 5.63702 74.2587 5.30546H74.9332L75.1577 8.48858H74.4835C73.7773 6.66482 72.3966 5.8361 71.2411 5.8361C70.1815 5.8361 69.5394 6.53234 69.5394 7.52702C69.5394 8.65418 70.3742 9.25142 71.6904 9.94766C73.1673 10.7101 75.8322 11.7711 75.8322 14.1921C75.8322 16.2808 73.9701 17.7395 72.0435 17.7395ZM81.4825 16.7779V17.4742C79.6431 17.3747 77.7999 17.3747 75.9604 17.4742V16.7779C76.7308 16.6786 77.3732 16.4795 77.3732 15.8826V8.09078C77.3732 7.16198 76.8915 6.96326 76.0246 7.06262V6.36638C77.3411 6.13418 78.5932 5.67014 79.6846 4.9739C79.9094 5.07326 80.1022 5.27234 80.2304 5.53766C80.1022 6.36638 80.1022 7.29482 80.1022 8.82014V15.8495C80.0377 16.4795 80.6801 16.6786 81.4825 16.7783V16.7779ZM77.2125 1.65794C77.2125 0.862339 77.8546 0.199219 78.6253 0.199219C79.3956 0.199219 80.0377 0.862339 80.0377 1.65794C80.0377 2.45354 79.3956 3.11702 78.6253 3.11702C77.8549 3.11702 77.2125 2.4539 77.2125 1.65794Z" fill="#A3A3A3"/>
<path d="M94.1645 16.7777V17.4739C92.3345 17.4077 90.5045 17.4077 88.6424 17.4739V16.7777C89.4769 16.7114 90.0869 16.4792 90.0869 15.8824V9.25115C90.0869 7.49363 89.509 6.33299 88.1928 6.33299C86.6521 6.33299 85.6886 7.92455 85.4321 8.85299V15.8824C85.4321 16.4792 86.0738 16.7114 86.8766 16.7777V17.4739C85.0466 17.4077 83.2166 17.4077 81.3866 17.4739V16.7777C82.1569 16.6783 82.799 16.4792 82.799 15.8824V8.09051C82.799 7.16171 82.2855 6.96299 81.3545 7.06235V6.36611C82.799 6.10079 83.9228 5.66987 84.9179 4.97363C85.1748 5.07299 85.3355 5.27207 85.4638 5.53739L85.0786 7.85831H85.2069C85.5924 7.02923 86.8766 4.97363 89.3807 4.97363C91.0179 4.97363 92.7197 5.83583 92.7197 9.18455V15.8492C92.7517 16.4792 93.3617 16.6783 94.1645 16.778V16.7777Z" fill="#A3A3A3"/>
<path d="M99.2373 17.7396C96.1552 17.7396 93.5869 15.4849 93.5869 11.4396C93.5869 7.32837 96.1873 5.10645 98.9807 5.10645C101.645 5.10645 103.7 7.06269 103.7 10.014C103.7 11.0749 103.379 11.6052 102.48 11.6052H96.38C96.38 14.6562 97.4717 16.9771 99.7831 16.9771C100.843 16.9771 101.966 16.4796 102.608 15.1202H103.379C102.673 16.8111 101.26 17.7396 99.2376 17.7396H99.2373ZM98.9807 5.83617C97.3431 5.83617 96.4121 7.69269 96.4121 10.7764H101.196C101.196 7.72617 100.618 5.83617 98.9807 5.83617ZM109.062 17.7396C107.617 17.7396 106.654 16.8777 105.947 16.8777C105.627 16.8777 105.466 17.1096 105.402 17.4411H104.663L104.406 14.1255H105.081C105.562 15.8499 107.521 16.9767 108.837 16.9767C109.928 16.9767 110.571 16.2808 110.571 15.2199C110.571 13.8933 109.479 13.2964 107.874 12.4342C106.204 11.5724 104.406 10.5111 104.406 8.42241C104.406 6.53241 105.947 5.10681 108.034 5.10681C109.511 5.10681 110.057 5.80269 110.667 5.80269C110.988 5.80269 111.181 5.63709 111.277 5.30553H111.951L112.176 8.48865H111.566C110.859 6.66489 109.479 5.83617 108.323 5.83617C107.263 5.83617 106.622 6.53241 106.622 7.52709C106.622 8.65425 107.456 9.25149 108.772 9.94773C110.249 10.7102 112.914 11.7711 112.914 14.1921C112.85 16.2808 110.988 17.7396 109.062 17.7396ZM118.147 17.7396C116.703 17.7396 115.739 16.8777 115.033 16.8777C114.712 16.8777 114.552 17.1096 114.487 17.4411H113.749L113.492 14.1255H114.166C114.648 15.8499 116.606 16.9767 117.923 16.9767C119.014 16.9767 119.656 16.2808 119.656 15.2199C119.656 13.8933 118.565 13.2964 116.959 12.4342C115.29 11.5724 113.492 10.5111 113.492 8.42241C113.492 6.53241 115.033 5.10681 117.12 5.10681C118.597 5.10681 119.143 5.80269 119.753 5.80269C120.073 5.80269 120.266 5.63709 120.363 5.30553H121.037L121.262 8.48865H120.652C119.945 6.66489 118.565 5.83617 117.409 5.83617C116.349 5.83617 115.707 6.53241 115.707 7.52709C115.707 8.65425 116.542 9.25149 117.858 9.94773C119.335 10.7102 122 11.7711 122 14.1921C121.936 16.2808 120.074 17.7396 118.147 17.7396Z" fill="#A3A3A3"/>
</svg>