<?xml version="1.0" encoding="UTF-8"?>
<!-- Generator: Adobe Illustrator 19.0.0, SVG Export Plug-In . SVG Version: 6.00 Build 0)  -->
<svg version="1.1" id="Layer_1" xmlns="http://www.w3.org/2000/svg" xmlns:xlink="http://www.w3.org/1999/xlink" x="0px" y="0px" viewBox="-205 372 200 49" style="enable-background:new -205 372 200 49;" xml:space="preserve">
<style type="text/css">
	.st0{fill:#2B90D9;}
	.st1{filter:url(#Adobe_OpacityMaskFilter);}
	.st2{fill:#FFFFFF;}
	.st3{mask:url(#mask-2);fill:#2B90D9;}
	.st4{filter:url(#Adobe_OpacityMaskFilter_1_);}
	.st5{mask:url(#mask-4);fill:#2B90D9;}
</style>
<title>Page 1</title>
<desc>Created with Sketch.</desc>
<g id="Assets">
	<g id="Artboard" transform="translate(-59.000000, -812.000000)">
		<g id="Page-1" transform="translate(59.000000, 812.000000)">
			<g id="Group-3" transform="translate(0.000000, 0.206364)">
				<path id="Fill-1" class="st0" d="M-172.5,408h-2.1l-7.9-27.7c-0.7-2.3-1.1-4.1-1.5-5.6c-0.3,1.4-0.6,3.1-1.1,4.9      c-0.5,1.9-3.1,11.3-7.9,28.4h-2.1L-205,372h2.6l6.3,23.2c0.2,0.9,0.5,1.8,0.7,2.6c0.2,0.8,0.4,1.5,0.6,2.2      c0.2,0.7,0.3,1.4,0.5,2c0.1,0.6,0.3,1.3,0.4,2c0.4-2.2,1.2-5.6,2.5-10.2l6.1-21.8h2.8l7.2,25c0.8,2.9,1.4,5.2,1.8,7      c0.2-1.2,0.5-2.4,0.8-3.8c0.3-1.3,2.9-10.7,7.6-28.2h2.5L-172.5,408z"/>
			</g>
			<path id="Fill-4" class="st0" d="M-153.4,406.5c2.9,0,5.1-0.8,6.7-2.4c1.6-1.6,2.5-3.9,2.5-6.8v-2.6l-4.7,0.2     c-3.8,0.2-6.4,0.8-8,1.8c-1.6,1-2.4,2.5-2.4,4.6c0,1.7,0.5,3,1.5,3.9C-156.7,406-155.2,406.5-153.4,406.5L-153.4,406.5z      M-143.5,408.2l-0.6-4.2h-0.2c-1.3,1.7-2.7,2.9-4.1,3.6c-1.4,0.7-3.1,1.1-5,1.1c-2.6,0-4.7-0.7-6.1-2c-1.5-1.3-2.2-3.2-2.2-5.6     c0-2.6,1.1-4.6,3.3-6.1c2.2-1.4,5.3-2.2,9.4-2.3l5.1-0.1v-1.8c0-2.5-0.5-4.5-1.5-5.8c-1-1.3-2.7-1.9-5-1.9c-2.5,0-5,0.7-7.7,2.1     l-0.9-2.1c2.9-1.4,5.8-2.1,8.7-2.1c2.9,0,5.1,0.8,6.6,2.3c1.5,1.5,2.2,3.9,2.2,7.1v17.8H-143.5z"/>
			<g id="Group-8" transform="translate(67.194908, 8.762933)">
				<g id="Clip-7">
				</g>
				<defs>
					<filter id="Adobe_OpacityMaskFilter" filterUnits="userSpaceOnUse" x="-204.8" y="372.2" width="24.2" height="39.3">
						<feColorMatrix type="matrix" values="1 0 0 0 0  0 1 0 0 0  0 0 1 0 0  0 0 0 1 0"/>
					</filter>
				</defs>
				<mask maskUnits="userSpaceOnUse" x="-204.8" y="372.2" width="24.2" height="39.3" id="mask-2">
					<g class="st1">
						<polygon id="path-1" class="st2" points="-204.8,411.5 -180.5,411.5 -180.5,372.2 -204.8,372.2       "/>
					</g>
				</mask>
				<path id="Fill-6" class="st3" d="M-200.1,381c0,2.1,0.6,3.7,1.9,4.8c1.3,1.1,2.9,1.7,5,1.7c2.2,0,3.9-0.6,5.1-1.7      c1.2-1.1,1.8-2.8,1.8-4.9c0-2.3-0.6-4-1.8-5.1c-1.2-1.1-2.9-1.7-5.1-1.7c-2.1,0-3.8,0.6-5,1.8      C-199.5,377.2-200.1,378.9-200.1,381L-200.1,381z M-202.2,403.9c0,3.7,2.7,5.5,8.2,5.5c7,0,10.5-2.2,10.5-6.7      c0-1.6-0.5-2.8-1.6-3.5c-1.1-0.7-2.9-1.1-5.3-1.1h-4.4C-199.7,398.2-202.2,400.1-202.2,403.9L-202.2,403.9z M-180.5,372.7v1.7      l-5.5,0.3c1.5,1.8,2.2,3.9,2.2,6c0,2.6-0.9,4.7-2.6,6.3c-1.7,1.6-4,2.4-6.9,2.4c-1.2,0-2.1,0-2.6-0.1c-1,0.5-1.7,1.1-2.2,1.8      c-0.5,0.7-0.8,1.4-0.8,2.2c0,0.9,0.3,1.5,1,1.9c0.6,0.4,1.7,0.6,3.3,0.6h4.7c2.9,0,5.1,0.6,6.7,1.8c1.5,1.2,2.3,2.9,2.3,5.2      c0,2.8-1.1,5-3.4,6.5c-2.3,1.5-5.5,2.3-9.8,2.3c-3.4,0-6-0.6-7.8-1.9c-1.8-1.3-2.8-3.1-2.8-5.4c0-1.8,0.6-3.4,1.7-4.6      c1.1-1.2,2.7-2,4.6-2.5c-0.8-0.3-1.4-0.8-1.9-1.5s-0.7-1.4-0.7-2.2c0-1.8,1.1-3.4,3.4-4.7c-1.6-0.6-2.8-1.6-3.6-3      c-0.9-1.4-1.3-2.9-1.3-4.7c0-2.7,0.8-4.8,2.5-6.4c1.7-1.6,4-2.4,6.9-2.4c1.8,0,3.1,0.2,4.1,0.5H-180.5z"/>
			</g>
			<path id="Fill-9" class="st0" d="M-61.5,408.2v-17.3c0-2.7-0.6-4.6-1.7-5.9c-1.1-1.2-2.9-1.8-5.3-1.8c-3.2,0-5.5,0.8-7,2.4     c-1.5,1.6-2.2,4.2-2.2,7.9v14.7h-2.4v-26.7h2.1l0.5,3.7h0.1c1.7-2.8,4.8-4.2,9.3-4.2c6.1,0,9.1,3.3,9.1,9.8v17.5H-61.5z"/>
			<path id="Fill-11" class="st0" d="M-41.4,383.1c-2.6,0-4.6,0.8-6.2,2.5c-1.6,1.7-2.5,4.1-2.7,7.3h16.5c0-3.1-0.7-5.5-2-7.3     C-37.2,384-39.1,383.1-41.4,383.1 M-40.7,408.7c-3.9,0-6.9-1.2-9.1-3.6c-2.2-2.4-3.3-5.7-3.3-10.1c0-4.3,1-7.7,3.1-10.2     c2.1-2.6,4.9-3.8,8.5-3.8c3.1,0,5.6,1.1,7.4,3.3c1.8,2.2,2.7,5.2,2.7,8.9v2h-19.2c0,3.7,0.9,6.5,2.6,8.4c1.7,1.9,4.1,2.9,7.2,2.9     c1.5,0,2.9-0.1,4-0.3c1.2-0.2,2.6-0.7,4.4-1.4v2.2c-1.5,0.7-2.9,1.1-4.2,1.3C-37.8,408.6-39.2,408.7-40.7,408.7"/>
			<g id="Group-15" transform="translate(176.669759, 9.266260)">
				<g id="Clip-14">
				</g>
				<defs>
					<filter id="Adobe_OpacityMaskFilter_1_" filterUnits="userSpaceOnUse" x="-204.8" y="372.2" width="22.4" height="26.7">
						<feColorMatrix type="matrix" values="1 0 0 0 0  0 1 0 0 0  0 0 1 0 0  0 0 0 1 0"/>
					</filter>
				</defs>
				<mask maskUnits="userSpaceOnUse" x="-204.8" y="372.2" width="22.4" height="26.7" id="mask-4">
					<g class="st4">
						<polygon id="path-3" class="st2" points="-182.4,398.9 -182.4,372.2 -204.8,372.2 -204.8,398.9       "/>
					</g>
				</mask>
				<polygon id="Fill-13" class="st5" points="-195.1,385.2 -204.4,372.2 -201.6,372.2 -193.6,383.5 -185.8,372.2 -183.1,372.2       -192.2,385.2 -182.4,398.9 -185.2,398.9 -193.6,387 -202.1,398.9 -204.8,398.9     "/>
			</g>
			<path id="Fill-16" class="st0" d="M-98.2,393c-1.3,0-2.3,1-2.3,2.3c0,1.3,1,2.3,2.3,2.3c1.3,0,2.3-1,2.3-2.3     C-95.8,394-96.9,393-98.2,393 M-98.2,399.7c-2.4,0-4.3-1.9-4.3-4.3s1.9-4.3,4.3-4.3c2.4,0,4.3,1.9,4.3,4.3     S-95.8,399.7-98.2,399.7"/>
			<path id="Fill-18" class="st0" d="M-105.8,396.4c-0.6,0-1-0.5-1-1c0-4.9,4-8.9,8.9-8.9c0.6,0,1,0.5,1,1c0,0.6-0.5,1-1,1     c-3.8,0-6.9,3.1-6.9,6.9C-104.8,396-105.3,396.4-105.8,396.4"/>
			<path id="Fill-20" class="st0" d="M-110.4,397.3c-0.5,0-1-0.4-1-0.9c0-0.4,0-0.7,0-1.1c0-7.4,6-13.4,13.4-13.4c0.6,0,1,0.5,1,1     s-0.5,1-1,1c-6.3,0-11.4,5.1-11.4,11.4c0,0.3,0,0.6,0,0.9C-109.4,396.7-109.8,397.2-110.4,397.3     C-110.4,397.3-110.4,397.3-110.4,397.3"/>
			<path id="Fill-22" class="st0" d="M-98.2,403.9c-0.6,0-1-0.5-1-1c0-0.6,0.5-1,1-1c3.8,0,6.9-3.1,6.9-6.9c0-0.6,0.5-1,1-1     s1,0.5,1,1C-89.3,399.9-93.3,403.9-98.2,403.9"/>
			<path id="Fill-24" class="st0" d="M-98,408.6c-0.6,0-1-0.5-1-1c0-0.6,0.5-1,1-1c6.3,0,11.4-5.1,11.4-11.4c0-0.3,0-0.6,0-0.9     c0-0.6,0.4-1,0.9-1.1c0.6,0,1,0.4,1.1,0.9c0,0.4,0,0.7,0,1.1C-84.6,402.6-90.6,408.6-98,408.6"/>
		</g>
	</g>
</g>
</svg>