<svg width="103" height="20" viewBox="0 0 103 20" fill="none" xmlns="http://www.w3.org/2000/svg">
<g clip-path="url(#clip0)">
<path d="M11.7862 9.57478L10.2489 0.532227H7.37921L5.84189 9.68116L4.40707 0.532227H0.205078L3.68966 18.9365H7.37921L8.81403 10.0003L10.2489 18.9365H13.9384L17.5255 0.532227H13.221L11.7862 9.57478Z" fill="#A3A3A3"/>
<path d="M25.6224 7.5535H22.9577V0.532227H18.4482V18.9365H22.9577V11.5961H25.6224V18.9365H30.1318V0.532227H25.6224V7.5535Z" fill="#A3A3A3"/>
<path d="M36.2812 12.7657H38.0235L37.1012 6.16992L36.2812 12.7657Z" fill="#A3A3A3"/>
<path d="M34.4359 0.532227L31.2588 19.0429H35.3583L35.7682 16.2769H38.4329L38.8429 19.0429H43.0449L39.7653 0.532227H34.4359ZM36.2807 12.7663L37.1006 6.17053L37.9205 12.6599H36.2807V12.7663Z" fill="#A3A3A3"/>
<path d="M41.918 4.14925H44.8901V18.9365H49.3996V4.14925H52.2692V0.532227H41.918V4.14925Z" fill="#A3A3A3"/>
<path d="M60.2628 0C57.1882 0 54.626 2.02128 54.626 4.46808V14.1489C54.626 17.4468 57.2907 19.3617 60.6727 19.3617C64.0548 19.3617 65.8996 17.234 65.8996 14.1489V11.4894H61.3902V14.3617C61.3902 14.8936 61.1852 15.5319 60.2628 15.5319C59.2379 15.5319 59.0329 14.8936 59.0329 14.4681V5C59.0329 4.46808 59.2379 3.93617 60.2628 3.93617C61.1852 3.93617 61.3902 4.57447 61.3902 5.10638V7.97872H65.8996V4.46808C65.8996 2.02128 63.3374 0 60.2628 0V0Z" fill="#A3A3A3"/>
<path d="M84.6547 4.04199H83.5273V8.29731H84.6547C85.2696 8.29731 85.5771 7.97816 85.5771 7.55263V4.89306C85.6796 4.46752 85.3721 4.04199 84.6547 4.04199Z" fill="#A3A3A3"/>
<path d="M86.3968 18.9364H90.4963C90.1888 18.1917 89.9838 17.1279 89.9838 15.8513V13.1917C89.9838 11.3832 89.0615 10.3194 87.8316 10.0002C88.959 9.57472 89.7789 8.51089 89.7789 7.02153V4.78748C89.7789 2.23429 88.0366 0.425781 85.1669 0.425781H79.2227V18.9364H83.5271V11.8088H84.4495C85.1669 11.8088 85.6794 12.3407 85.6794 12.979V15.8513C85.7819 17.3407 85.9868 18.4045 86.3968 18.9364ZM85.6794 7.55344C85.6794 7.97897 85.3719 8.29812 84.757 8.29812H83.6296V4.0428H84.757C85.4744 4.0428 85.6794 4.36195 85.6794 4.78748V7.55344Z" fill="#A3A3A3"/>
<path d="M72.356 6.16992L71.4336 12.7657H73.1759L72.356 6.16992Z" fill="#A3A3A3"/>
<path d="M66.4121 18.9365H70.5116L70.9216 16.1705H73.5862L73.9962 18.9365H78.1982L75.0211 0.532227H69.6917L66.4121 18.9365ZM72.3564 6.17052L73.1763 12.6599H71.434L72.3564 6.17052Z" fill="#A3A3A3"/>
<path d="M96.3387 14.6807C95.0063 14.6807 93.9814 15.7445 93.9814 17.1275C93.9814 18.5105 95.0063 19.5743 96.3387 19.5743C97.671 19.5743 98.6959 18.5105 98.6959 17.1275C98.6959 15.8509 97.671 14.6807 96.3387 14.6807Z" fill="#A3A3A3"/>
<path d="M95.6208 5.21289C95.6208 4.68098 96.2357 4.14906 96.9531 4.14906C97.6705 4.14906 98.183 4.68098 98.183 5.21289C98.183 6.70225 93.2636 8.51076 93.2636 12.1278C93.2636 12.7661 93.571 13.4044 93.8785 13.8299H98.5929C98.183 13.298 97.978 12.8725 97.978 12.3406C97.978 9.68098 102.692 8.72353 102.692 5.00012C102.692 2.76608 100.643 0.212891 96.6457 0.212891C93.2636 0.212891 91.1113 2.76608 91.1113 5.00012V6.3831H95.5183V5.21289H95.6208Z" fill="#A3A3A3"/>
</g>
<defs>
<clipPath id="clip0">
<rect width="103" height="20" fill="white"/>
</clipPath>
</defs>
</svg>